<svg width="19" height="26" viewBox="0 0 19 26" fill="none" xmlns="http://www.w3.org/2000/svg">
<path d="M15.3393 1.5H3.91071C2.64835 1.5 1.625 2.52974 1.625 3.8V22.2C1.625 23.4703 2.64835 24.5 3.91071 24.5H15.3393C16.6017 24.5 17.625 23.4703 17.625 22.2V3.8C17.625 2.52974 16.6017 1.5 15.3393 1.5Z" fill="white"/>
<path d="M9.625 19.9H9.63643M3.91071 1.5H15.3393C16.6017 1.5 17.625 2.52974 17.625 3.8V22.2C17.625 23.4703 16.6017 24.5 15.3393 24.5H3.91071C2.64835 24.5 1.625 23.4703 1.625 22.2V3.8C1.625 2.52974 2.64835 1.5 3.91071 1.5Z" stroke="white" stroke-width="2" stroke-linecap="round" stroke-linejoin="round"/>
</svg>
