<svg width="28" height="26" viewBox="0 0 28 26" fill="none" xmlns="http://www.w3.org/2000/svg">
<path fill-rule="evenodd" clip-rule="evenodd" d="M13.0201 1.43934C13.6303 0.853553 14.6197 0.853553 15.2299 1.43934L26.1673 11.9393C26.6142 12.3683 26.7479 13.0135 26.506 13.574C26.2642 14.1345 25.6944 14.5 25.0625 14.5H23.5V23.5C23.5 24.3284 22.8004 25 21.9375 25H18.8125C17.9495 25 17.25 24.3284 17.25 23.5V19C17.25 18.1716 16.5504 17.5 15.6875 17.5H12.5625C11.6996 17.5 11 18.1716 11 19V23.5C11 24.3284 10.3005 25 9.43752 25H6.31253C5.44959 25 4.75003 24.3284 4.75003 23.5V14.5H3.18754C2.55557 14.5 1.98583 14.1345 1.74398 13.574C1.50214 13.0135 1.63582 12.3683 2.08269 11.9393L13.0201 1.43934Z" fill="white" stroke="white" stroke-width="2" stroke-linecap="round" stroke-linejoin="round"/>
</svg>
