<svg width="24" height="24" viewBox="0 0 24 24" fill="none" xmlns="http://www.w3.org/2000/svg">
<path d="M11.875 15.875C13.669 15.875 16.4176 16.3329 18.6924 17.2441C19.829 17.6995 20.7842 18.2439 21.4395 18.8486C22.0878 19.4471 22.375 20.0364 22.375 20.625V22.5H1.375V20.625C1.375 20.0364 1.66218 19.4471 2.31055 18.8486C2.96577 18.2439 3.92103 17.6995 5.05762 17.2441C7.33238 16.3329 10.081 15.875 11.875 15.875ZM11.875 1.5C14.4996 1.5 16.625 3.62541 16.625 6.25C16.625 8.87459 14.4996 11 11.875 11C9.25041 11 7.125 8.87459 7.125 6.25C7.125 3.62541 9.25041 1.5 11.875 1.5Z" stroke="white" stroke-width="2"/>
</svg>
